<svg xmlns="http://www.w3.org/2000/svg" version="1.1" xmlns:xlink="http://www.w3.org/1999/xlink" xmlns:svgjs="http://svgjs.dev/svgjs" width="800" height="950" viewBox="0 0 800 950"><g transform="matrix(1,0,0,1,2.340481502795228,2.4049999999999727)"><svg viewBox="0 0 80 95" data-background-color="#ffffff" preserveAspectRatio="xMidYMid meet" height="950" width="800" xmlns="http://www.w3.org/2000/svg" xmlns:xlink="http://www.w3.org/1999/xlink"><g id="tight-bounds" transform="matrix(1,0,0,1,-0.23404815027951997,-0.24049999999999727)"><svg viewBox="0 0 80.46809630055903 95.481" height="95.481" width="80.46809630055903"><g><svg viewBox="0 0 80.46809630055903 95.481" height="95.481" width="80.46809630055903"><g><svg viewBox="0 0 80.46809630055903 95.481" height="95.481" width="80.46809630055903"><g id="textblocktransform"><svg viewBox="0 0 80.46809630055903 95.481" height="95.481" width="80.46809630055903" id="textblock"><g><svg viewBox="0 0 80.46809630055903 95.481" height="95.481" width="80.46809630055903"><g><svg viewBox="0 0 80.46809630055903 95.481" height="95.481" width="80.46809630055903"><g><svg xmlns="http://www.w3.org/2000/svg" xmlns:xlink="http://www.w3.org/1999/xlink" version="1.1" x="0" y="0" viewBox="6.371 1.59 51.257 60.81999999999999" enable-background="new 0 0 64 64" xml:space="preserve" height="95.481" width="80.46809630055903" class="icon-icon-0" data-fill-palette-color="accent" id="icon-0"><g fill="#1b3c8e" data-fill-palette-color="accent"><polygon points="13.498,62.41 6.371,62.41 6.371,1.59 13.498,1.59 13.498,45.167 11.498,45.167 11.498,3.59 8.371,3.59    8.371,60.41 11.498,60.41 11.498,53.785 13.498,53.785  " fill="#1b3c8e" data-fill-palette-color="accent"></polygon><polygon points="24.728,62.41 17.601,62.41 17.601,57.938 19.601,57.938 19.601,60.41 22.728,60.41 22.728,54.576 24.728,54.576     " fill="#1b3c8e" data-fill-palette-color="accent"></polygon><polygon points="19.601,38.141 17.601,38.141 17.601,1.59 24.728,1.59 24.728,32.252 22.728,32.252 22.728,3.59 19.601,3.59  " fill="#1b3c8e" data-fill-palette-color="accent"></polygon><polygon points="35.958,62.41 28.831,62.41 28.831,47.88 30.831,47.88 30.831,60.41 33.958,60.41 33.958,41.664 35.958,41.664  " fill="#1b3c8e" data-fill-palette-color="accent"></polygon><polygon points="30.831,25.236 28.831,25.236 28.831,1.59 35.958,1.59 35.958,19.411 33.958,19.411 33.958,3.59 30.831,3.59  " fill="#1b3c8e" data-fill-palette-color="accent"></polygon><path d="M19.028 59.61c-0.868 0-1.706-0.312-2.359-0.879l-7.132-6.194c-0.724-0.629-1.16-1.505-1.228-2.466-0.067-0.962 0.242-1.89 0.872-2.613L34.14 18.756c0.685-0.786 1.677-1.236 2.723-1.236 0.868 0 1.706 0.312 2.359 0.878l7.134 6.195c1.498 1.301 1.656 3.58 0.354 5.079L21.752 58.373C21.069 59.159 20.076 59.61 19.028 59.61zM36.862 19.52c-0.468 0-0.91 0.2-1.214 0.549L10.69 48.771c-0.279 0.32-0.416 0.732-0.386 1.161 0.03 0.428 0.223 0.817 0.544 1.096l7.132 6.194c0.64 0.556 1.708 0.478 2.262-0.161l24.957-28.7c0.579-0.667 0.509-1.68-0.156-2.258l-7.133-6.194C37.622 19.658 37.249 19.52 36.862 19.52z" fill="#1b3c8e" data-fill-palette-color="accent"></path><path d="M43.799 25.021l-4.646-4.033L52.169 6.023l4.643 4.031L43.799 25.021zM41.976 20.79l1.626 1.411 10.388-11.949-1.623-1.409L41.976 20.79z" fill="#1b3c8e" data-fill-palette-color="accent"></path><path d="M47.982 61.184c-5.319 0-9.647-4.328-9.647-9.647s4.328-9.647 9.647-9.647 9.646 4.328 9.646 9.647S53.302 61.184 47.982 61.184zM47.982 43.889c-4.217 0-7.647 3.431-7.647 7.647s3.431 7.647 7.647 7.647c4.216 0 7.646-3.431 7.646-7.647S52.198 43.889 47.982 43.889z" fill="#1b3c8e" data-fill-palette-color="accent"></path></g></svg></g></svg></g></svg></g></svg></g></svg></g></svg></g><defs></defs></svg><rect width="80.46809630055903" height="95.481" fill="none" stroke="none" visibility="hidden"></rect></g></svg></g></svg>